<?xml version="1.0" standalone="no"?>
<!DOCTYPE svg PUBLIC "-//W3C//DTD SVG 20010904//EN"
 "http://www.w3.org/TR/2001/REC-SVG-20010904/DTD/svg10.dtd">
<svg version="1.0" xmlns="http://www.w3.org/2000/svg"
 width="539.000000pt" height="539.000000pt" viewBox="0 0 539.000000 539.000000"
 preserveAspectRatio="xMidYMid meet">
<metadata>
Created by potrace 1.11, written by Peter Selinger 2001-2013
</metadata>
<g transform="translate(0.000000,539.000000) scale(0.100000,-0.100000)"
fill="#000000" stroke="none">
<path d="M3307 4424 c-1 -1 -25 -4 -54 -8 -28 -3 -57 -8 -65 -10 -7 -3 -26 -7
-43 -10 -48 -8 -151 -34 -265 -68 -58 -16 -109 -31 -115 -33 -5 -1 -18 -5 -27
-9 -9 -4 -22 -9 -30 -10 -7 -1 -35 -9 -63 -18 -27 -9 -151 -49 -275 -88 -343
-109 -589 -195 -745 -260 -55 -23 -106 -42 -112 -43 -7 0 -13 -4 -13 -8 0 -4
-11 -10 -25 -13 -27 -7 -224 -103 -310 -150 -60 -34 -214 -137 -251 -169 -87
-73 -86 -71 -85 -130 0 -31 7 -71 14 -90 15 -33 14 -34 -17 -49 -100 -48 -223
-110 -236 -118 -8 -5 -44 -23 -80 -41 -63 -31 -83 -46 -75 -59 2 -4 6 -19 9
-33 3 -15 12 -41 20 -58 9 -17 14 -35 11 -39 -3 -4 4 -10 16 -13 18 -5 19 -8
7 -26 -11 -18 -41 -27 -71 -22 -7 1 -50 -10 -97 -24 -5 -2 -42 -16 -100 -39
-19 -8 -43 -17 -52 -20 -11 -3 -15 -11 -12 -21 4 -9 1 -15 -8 -15 -8 0 -35
-13 -61 -30 -26 -17 -55 -30 -63 -30 -11 0 -14 -8 -12 -27 2 -21 8 -28 25 -28
37 0 34 -11 -7 -25 -45 -15 -52 -37 -15 -46 37 -9 50 -30 31 -49 -27 -27 -19
-32 55 -34 86 -2 90 -3 106 -18 7 -6 22 -10 33 -8 27 5 25 -9 -2 -23 -15 -7
-17 -11 -8 -11 13 -1 54 13 135 44 14 6 10 -1 -12 -23 -18 -18 -37 -32 -43
-32 -5 0 -10 -4 -10 -9 0 -5 -18 -16 -40 -25 -22 -9 -41 -23 -41 -31 -1 -8 -2
-18 -3 -22 -16 -67 -17 -77 -5 -99 11 -22 19 -24 93 -24 45 0 92 -2 106 -5 14
-2 30 -4 36 -4 6 -1 9 -12 7 -25 -5 -22 -2 -24 18 -19 13 3 30 10 36 16 7 5
25 6 40 2 27 -6 27 -7 9 -21 -35 -25 -9 -26 46 -1 127 57 318 111 548 154 l25
5 -25 -14 c-14 -8 -47 -26 -73 -41 -46 -26 -92 -54 -112 -69 -5 -4 -32 -24
-60 -45 -99 -73 -131 -99 -212 -180 -45 -46 -92 -101 -103 -122 -24 -48 -24
-46 -2 -48 34 -2 72 -7 72 -11 0 -1 -6 -18 -14 -37 l-15 -34 24 11 c18 8 28 8
40 -2 19 -16 19 -30 1 -30 -13 0 -31 -29 -22 -37 4 -4 24 -5 75 -1 21 2 36 -2
38 -9 3 -8 -5 -13 -21 -13 -29 0 -37 -20 -8 -20 11 -1 7 -7 -14 -18 -68 -37
-119 -137 -108 -209 3 -15 5 -34 6 -40 1 -7 11 -13 22 -13 14 0 28 -12 40 -35
13 -24 25 -34 35 -30 9 2 23 0 31 -5 8 -5 13 -10 10 -11 -3 0 -14 -3 -25 -5
-18 -5 -50 -11 -66 -13 -4 -1 -6 -17 -5 -36 1 -24 6 -35 17 -35 31 0 68 -25
66 -44 -1 -14 5 -20 23 -21 48 -4 235 -69 255 -89 8 -7 32 -12 61 -10 27 1 99
5 159 8 61 3 121 8 135 11 14 2 36 7 50 9 111 21 140 29 140 37 0 5 -24 9 -52
10 l-53 1 35 16 c19 8 40 17 45 18 52 15 166 43 190 47 17 3 56 11 87 17 31 6
70 13 85 15 15 2 39 6 53 9 56 12 78 16 130 21 30 4 73 9 95 12 22 2 47 5 55
5 29 1 156 29 205 45 28 10 56 16 63 15 6 -2 45 9 85 23 39 15 79 28 87 30 8
2 53 12 100 23 47 11 99 23 115 26 17 2 41 7 55 10 14 4 41 8 60 11 19 3 44 6
55 9 27 5 108 15 173 21 30 3 66 11 80 19 15 7 52 16 82 19 81 9 193 45 187
61 -4 9 26 21 101 41 59 15 112 27 117 28 6 0 19 9 30 20 11 11 14 17 8 13 -7
-4 -13 -2 -13 3 0 6 3 11 8 12 103 11 218 40 189 47 -46 10 120 107 191 111 7
1 16 9 19 19 8 22 39 50 65 58 15 4 17 9 9 17 -19 19 -13 25 39 37 28 7 72 28
98 47 43 32 72 67 182 217 39 54 96 86 258 146 119 44 176 87 223 170 21 35
37 67 37 70 -1 3 2 13 6 23 11 23 0 63 -23 84 -10 10 -19 31 -19 46 1 36 -3
38 -49 42 -102 8 -201 25 -268 46 -26 8 -31 15 -33 44 -2 25 2 35 11 35 8 0
34 9 58 19 25 11 71 22 104 26 81 8 93 10 101 18 4 4 13 7 21 7 7 0 39 13 70
28 97 47 121 63 190 127 43 40 44 40 35 87 -5 26 -8 72 -6 102 3 47 1 54 -17
59 -12 3 -18 10 -15 16 4 6 -6 35 -21 66 -23 45 -32 54 -48 50 -11 -3 -33 -8
-48 -11 -16 -3 -83 -21 -150 -40 -234 -68 -268 -77 -337 -92 -95 -22 -220 -35
-220 -23 0 3 16 17 36 30 82 56 171 179 178 246 2 12 6 26 9 31 12 20 -12 36
-65 43 -55 7 -99 28 -128 61 -8 10 -26 17 -40 16 -14 -1 -38 3 -55 10 -32 12
-41 12 -156 0 -42 -5 -91 -5 -108 -1 -27 6 -30 10 -27 38 5 48 -10 79 -54 110
-34 24 -40 34 -40 64 0 22 -12 58 -31 92 -38 68 -34 63 -61 65 -17 1 -22 7
-21 23 2 16 -2 20 -16 16 -11 -3 -30 1 -42 8 -29 16 -39 17 -59 8 -19 -9 -87
-20 -160 -25 -30 -2 -55 -4 -55 -4 0 -3 -37 -8 -87 -14 -29 -3 -62 -7 -73 -10
-11 -2 -42 -7 -70 -11 -71 -10 -86 -12 -120 -18 -16 -3 -55 -9 -85 -12 -30 -4
-57 -8 -60 -10 -5 -3 -83 -15 -139 -21 -19 -2 -49 -6 -67 -9 -18 -2 -63 -7
-100 -10 -37 -4 -71 -8 -76 -11 -4 -3 -8 -1 -8 4 0 6 51 28 113 50 122 45 372
130 398 136 25 6 173 68 184 77 9 6 13 90 6 120 -1 5 -128 8 -134 3z"/>
</g>
</svg>
